<?xml version="1.0" encoding="UTF-8" standalone="no"?> <svg id="vector_icon" data-name="vector icon" xmlns="http://www.w3.org/2000/svg" viewBox="0 0 512 512"><defs><style>.cls-1{fill:#383838;}.cls-2{fill:#1de7fc;}.cls-3{fill:#231f20;}</style></defs><g id="location"><ellipse class="cls-1" cx="256" cy="480.35" rx="37.88" ry="5.13"/><path class="cls-2" d="M256,29c-316.93,0,0,423,0,423S572.93,29,256,29Zm0,173.77c-37.24,0-67.43-34.52-67.43-67.86S218.76,82,256,82s67.43,19.53,67.43,52.86S293.24,202.72,256,202.72Z"/><path class="cls-3" d="M256,456l-1.95-2.61c-.47-.62-47.47-63.63-86.79-140-23.12-44.9-39.11-85.57-47.53-120.9C109.13,148.05,110.57,111.86,124,85c9.3-18.59,24.48-32.94,45.12-42.66C191.43,31.84,220.66,26.52,256,26.52s64.57,5.32,86.86,15.81C363.5,52.05,378.68,66.4,388,85c13.45,26.87,14.89,63.06,4.29,107.55-8.42,35.33-24.41,76-47.53,120.9-39.32,76.33-86.32,139.34-86.79,140Zm0-424.62c-66.17,0-109.11,18.77-127.62,55.78-12.92,25.82-14.24,60.88-3.92,104.21,8.32,34.94,24.17,75.23,47.11,119.77,34.58,67.16,75.16,124,84.43,136.68,9.27-12.71,49.85-69.52,84.43-136.68,22.94-44.54,38.79-84.83,47.11-119.77,10.32-43.33,9-78.39-3.91-104.21C365.11,50.16,322.17,31.39,256,31.39Zm0,173.76c-18.25,0-35.81-7.88-49.45-22.18-13-13.61-20.42-31.15-20.42-48.11,0-16.69,7.17-30.83,20.74-40.89,12.53-9.29,30-14.41,49.13-14.41S292.6,84.68,305.13,94c13.57,10.06,20.74,24.2,20.74,40.89,0,17-7.44,34.5-20.42,48.11C291.81,197.27,274.25,205.15,256,205.15Zm0-120.71c-38.27,0-65,20.73-65,50.42,0,30.88,27.8,65.42,65,65.42s65-34.54,65-65.42C321,105.17,294.27,84.44,256,84.44Z"/></g></svg>